<svg width="579" height="473" viewBox="0 0 579 473" fill="none" xmlns="http://www.w3.org/2000/svg">
<path d="M136.693 0.802801C116.887 3.51035 95.9482 10.5048 79.3108 19.9812C39.3583 42.8826 11.8556 80.5626 2.12212 125.914C-0.707374 139.452 -0.707374 172.168 2.12212 185.706C13.3269 238.051 54.0717 295.474 122.998 356.055C164.648 392.607 209.354 425.098 264.36 458.942C290.731 475.074 288.241 474.172 295.824 469.885C331.023 450.255 386.707 412.801 422.812 384.372C465.82 350.64 507.81 309.125 531.917 276.747C564.287 233.088 579 195.859 579 157.164C579 105.946 555.798 60.7072 513.356 29.232C504.641 22.8016 485.061 12.6483 473.516 8.69981C455.294 2.3822 442.392 0.351543 421.114 0.238729C394.517 0.125915 376.408 3.9616 353.885 14.3405C333.06 23.9297 308.726 43.4466 295.824 60.7072C292.655 64.8814 289.712 68.3786 289.259 68.3786C288.807 68.3786 285.864 64.9942 282.808 60.7072C279.639 56.5331 272.283 48.5233 266.51 42.9954C245.346 22.6888 219.767 9.15107 190.227 2.83346C178.23 0.238729 149.256 -0.889415 136.693 0.802801Z" fill="#BC0DE8" fill-opacity="0.1"/>
</svg>
