<svg width="579" height="473" viewBox="0 0 579 473" fill="none" xmlns="http://www.w3.org/2000/svg">
<path fill-rule="evenodd" clip-rule="evenodd" d="M295.785 470.322C293.52 471.603 292.154 472.582 290.648 472.894C287.115 473.628 282.815 470.692 264.325 459.378C209.327 425.532 164.627 393.039 122.982 356.485C54.0646 295.899 13.3252 238.473 2.12185 186.124C-0.707282 172.585 -0.707282 139.867 2.12185 126.328C11.854 80.9736 39.3532 43.2911 79.3005 20.3882C95.9357 10.9112 116.871 3.91626 136.675 1.20853C149.236 -0.483795 178.207 0.644409 190.202 3.23932C219.738 9.55734 245.314 23.096 266.476 43.4039C269.01 45.8316 271.85 48.738 274.507 51.588C274.532 51.615 274.557 51.6421 274.582 51.6691C277.946 55.2805 281.007 58.7931 282.771 61.117C285.827 65.4042 288.769 68.7888 289.222 68.7888C289.674 68.7888 292.617 65.2914 295.785 61.117C298.114 58.0016 300.814 54.8127 303.799 51.6219C303.825 51.5941 303.851 51.5663 303.877 51.5385C317.429 37.0776 336.807 22.5912 353.839 14.7472C376.359 4.36752 394.465 0.531586 421.059 0.644409C442.334 0.757233 455.235 2.78802 473.454 9.10605C484.997 13.0548 504.575 23.2088 513.289 29.6396C555.726 61.117 578.924 106.359 578.924 157.58C578.924 196.278 564.213 233.509 531.848 277.171C507.744 309.551 465.759 351.069 422.757 384.803C386.657 413.234 330.98 450.691 295.785 470.322ZM513.665 263.735C491.075 294.076 450.668 334.196 408.761 367.07L408.727 367.097C374.956 393.694 323.391 428.53 289.195 448.109C287.032 446.812 284.439 445.221 281.18 443.221C279.668 442.294 278.012 441.278 276.19 440.163C222.104 406.876 178.473 375.128 137.943 339.554C137.942 339.552 137.94 339.551 137.938 339.549C70.3725 280.149 33.9809 226.751 24.2694 181.475C23.3546 177.053 22.633 167.433 22.633 156.226C22.633 145.022 23.3542 135.404 24.2686 130.981C32.6785 91.8782 56.2468 59.6462 90.5527 39.9665C104.548 31.9978 122.672 25.9034 139.717 23.5682C143.999 22.9929 152.786 22.7812 162.782 23.164C172.813 23.548 181.424 24.4298 185.403 25.2906L185.429 25.2961L185.454 25.3016C210.942 30.7538 232.707 42.317 250.78 59.6607L250.787 59.668L250.795 59.6752C255.95 64.6137 262.22 71.5016 264.56 74.52C266.332 76.9886 268.131 79.2952 269.702 81.1438C270.483 82.0636 271.453 83.1609 272.485 84.1849C272.948 84.6446 273.848 85.5156 275.017 86.4251C275.574 86.8582 276.69 87.6934 278.209 88.5252L278.259 88.5529C279.167 89.052 283.355 91.3532 289.222 91.3532C295.25 91.3532 299.535 88.9237 300.429 88.4167L300.486 88.3843C302.003 87.5278 303.113 86.6728 303.653 86.2415C304.793 85.3318 305.67 84.4636 306.105 84.0242C307.081 83.0379 308.013 81.9745 308.743 81.117C310.288 79.3011 312.088 77.0317 313.833 74.7333L313.884 74.6662L313.934 74.5988C324.479 60.4901 345.777 43.3159 363.331 35.2314L363.337 35.2287C382.662 26.3215 397.465 23.1111 420.939 23.2085M282.011 452.207C282.009 452.208 282.038 452.193 282.098 452.159C282.042 452.189 282.012 452.206 282.011 452.207ZM513.665 263.735C544.286 222.418 556.291 189.819 556.291 157.58C556.291 113.741 536.68 75.1255 499.804 47.7622C493.082 42.8079 475.623 33.7037 466.109 30.4489L466.064 30.4336L466.019 30.418C450.439 25.0154 440.046 23.3099 420.941 23.2085" fill="url(#paint0_linear_248_94)"/>
<defs>
<linearGradient id="paint0_linear_248_94" x1="289.462" y1="473" x2="289.462" y2="0.405762" gradientUnits="userSpaceOnUse">
<stop offset="0.0104167" stop-color="#E70E6B"/>
<stop offset="0.520833" stop-color="#A168EC"/>
<stop offset="1" stop-color="#6B68B0"/>
</linearGradient>
</defs>
</svg>
