<svg width="579" height="473" viewBox="0 0 579 473" fill="none" xmlns="http://www.w3.org/2000/svg">
<path fill-rule="evenodd" clip-rule="evenodd" d="M295.785 470.322C293.52 471.603 292.154 472.582 290.648 472.894C287.115 473.628 282.815 470.692 264.325 459.378C209.327 425.532 164.627 393.039 122.982 356.485C54.0646 295.899 13.3252 238.473 2.12185 186.124C-0.707282 172.585 -0.707282 139.867 2.12185 126.328C11.854 80.9735 39.3532 43.291 79.3005 20.3882C95.9357 10.9112 116.871 3.9162 136.675 1.20847C149.236 -0.483856 178.207 0.644348 190.202 3.23926C219.738 9.55728 245.314 23.0959 266.476 43.4039C269.01 45.8315 271.85 48.7379 274.507 51.5879C274.532 51.6149 274.557 51.642 274.582 51.669C277.946 55.2804 281.007 58.7931 282.771 61.1169C285.827 65.4041 288.769 68.7888 289.222 68.7888C289.674 68.7888 292.617 65.2913 295.785 61.1169C298.114 58.0015 300.814 54.8126 303.799 51.6219C303.825 51.5941 303.851 51.5663 303.877 51.5385C317.429 37.0776 336.807 22.5911 353.839 14.7471C376.359 4.36746 394.465 0.531525 421.059 0.644348C442.334 0.757172 455.235 2.78796 473.454 9.10599C484.997 13.0548 504.575 23.2087 513.289 29.6396C555.726 61.1169 578.924 106.358 578.924 157.58C578.924 196.278 564.213 233.509 531.848 277.171C507.744 309.551 465.759 351.069 422.757 384.803C386.657 413.234 330.98 450.691 295.785 470.322ZM513.665 263.735C491.075 294.076 450.668 334.196 408.761 367.07L408.727 367.097C374.956 393.694 323.391 428.53 289.195 448.109C287.032 446.811 284.439 445.221 281.18 443.221C279.668 442.294 278.012 441.278 276.19 440.163C222.104 406.876 178.473 375.128 137.943 339.553C137.942 339.552 137.94 339.55 137.938 339.549C70.3725 280.149 33.9809 226.751 24.2694 181.475C23.3546 177.053 22.633 167.433 22.633 156.226C22.633 145.022 23.3542 135.404 24.2686 130.981C32.6785 91.8781 56.2468 59.6461 90.5527 39.9664C104.548 31.9978 122.672 25.9034 139.717 23.5682C143.999 22.9928 152.786 22.7811 162.782 23.1639C172.813 23.548 181.424 24.4297 185.403 25.2905L185.429 25.2961L185.454 25.3015C210.942 30.7537 232.707 42.317 250.78 59.6607L250.787 59.6679L250.795 59.6751C255.95 64.6136 262.22 71.5015 264.56 74.5199C266.332 76.9885 268.131 79.2951 269.702 81.1437C270.483 82.0636 271.453 83.1609 272.485 84.1848C272.948 84.6445 273.848 85.5156 275.017 86.425C275.574 86.8581 276.69 87.6933 278.209 88.5252L278.259 88.5529C279.167 89.052 283.355 91.3532 289.222 91.3532C295.25 91.3532 299.535 88.9237 300.429 88.4166L300.486 88.3843C302.003 87.5278 303.113 86.6728 303.653 86.2414C304.793 85.3318 305.67 84.4635 306.105 84.0241C307.081 83.0378 308.013 81.9745 308.743 81.1169C310.288 79.3011 312.088 77.0316 313.833 74.7332L313.884 74.6662L313.934 74.5987C324.479 60.4901 345.777 43.3158 363.331 35.2314L363.337 35.2286C382.662 26.3214 397.465 23.1111 420.939 23.2084M282.011 452.207C282.009 452.208 282.038 452.193 282.098 452.159C282.042 452.189 282.012 452.206 282.011 452.207ZM513.665 263.735C544.286 222.418 556.291 189.819 556.291 157.58C556.291 113.741 536.68 75.1254 499.804 47.7622C493.082 42.8078 475.623 33.7036 466.109 30.4489L466.064 30.4335L466.019 30.418C450.439 25.0153 440.046 23.3098 420.941 23.2084" fill="url(#paint0_linear_18_28)"/>
<defs>
<linearGradient id="paint0_linear_18_28" x1="289.462" y1="473" x2="289.462" y2="0.405701" gradientUnits="userSpaceOnUse">
<stop offset="0.0104167" stop-color="#E70E6B"/>
<stop offset="0.520833" stop-color="#A168EC"/>
<stop offset="1" stop-color="#6B68B0"/>
</linearGradient>
</defs>
</svg>
