<svg width="378" height="308" viewBox="0 0 378 308" fill="none" xmlns="http://www.w3.org/2000/svg">
<path fill-rule="evenodd" clip-rule="evenodd" d="M193.481 306.125C192.005 306.959 191.115 307.597 190.135 307.801C187.833 308.279 185.032 306.366 172.987 298.996C137.158 276.947 108.038 255.779 80.9092 231.966C36.0131 192.498 9.47361 155.088 2.17524 120.985C0.332213 112.165 0.332213 90.8512 2.17524 82.0315C8.51524 52.4856 26.4294 27.9374 52.4529 13.0175C63.2899 6.84372 76.9283 2.28687 89.8294 0.522949C98.0124 -0.579529 116.885 0.155457 124.699 1.84589C143.941 5.96173 160.602 14.7814 174.387 28.011C176.038 29.5925 177.888 31.4858 179.619 33.3424C179.636 33.36 179.652 33.3777 179.668 33.3953C181.86 35.7479 183.854 38.0362 185.003 39.55C186.994 42.3429 188.91 44.5479 189.205 44.5479C189.5 44.5479 191.417 42.2694 193.481 39.55C194.998 37.5205 196.757 35.4431 198.702 33.3645C198.719 33.3464 198.736 33.3283 198.753 33.3102C207.58 23.8897 220.205 14.4526 231.3 9.34262C245.97 2.58087 257.766 0.0819397 275.09 0.155457C288.95 0.228943 297.354 1.55191 309.223 5.66776C316.742 8.24017 329.496 14.8549 335.173 19.0443C362.818 39.55 377.931 69.0225 377.931 102.39C377.931 127.6 368.347 151.854 347.263 180.298C331.56 201.391 304.21 228.438 276.196 250.414C252.679 268.935 216.408 293.336 193.481 306.125ZM335.418 171.544C320.702 191.31 294.379 217.446 267.079 238.862L267.056 238.879C245.056 256.206 211.465 278.9 189.188 291.654C187.779 290.809 186.09 289.773 183.966 288.47C182.981 287.866 181.903 287.204 180.716 286.478C145.481 264.793 117.058 244.111 90.6556 220.936C90.6545 220.935 90.6534 220.934 90.6523 220.933C46.6368 182.238 22.9297 147.452 16.6031 117.956C16.0072 115.076 15.5372 108.809 15.5372 101.508C15.5372 94.2096 16.007 87.9439 16.6026 85.0626C22.0812 59.5893 37.4347 38.5919 59.7831 25.7716C68.9005 20.5805 80.7071 16.6103 91.8109 15.0891C94.6007 14.7143 100.324 14.5764 106.837 14.8257C113.371 15.0759 118.981 15.6504 121.573 16.2111L121.59 16.2147L121.606 16.2183C138.211 19.7701 152.389 27.3029 164.162 38.6014L164.167 38.6061L164.172 38.6108C167.531 41.828 171.615 46.315 173.139 48.2814C174.294 49.8896 175.466 51.3922 176.489 52.5964C176.998 53.1956 177.63 53.9105 178.302 54.5776C178.604 54.877 179.19 55.4444 179.952 56.0369C180.314 56.319 181.042 56.8631 182.031 57.405L182.064 57.4231C182.655 57.7482 185.384 59.2473 189.205 59.2473C193.132 59.2473 195.924 57.6646 196.506 57.3343L196.543 57.3132C197.532 56.7553 198.255 56.1983 198.607 55.9173C199.349 55.3247 199.92 54.7591 200.204 54.4728C200.839 53.8303 201.447 53.1376 201.922 52.579C202.929 51.3961 204.102 49.9176 205.238 48.4203L205.271 48.3766L205.304 48.3327C212.173 39.1417 226.048 27.9536 237.483 22.687L237.487 22.6852C250.076 16.8827 259.72 14.7913 275.012 14.8547M184.508 294.324C184.507 294.325 184.525 294.315 184.565 294.293C184.528 294.312 184.508 294.323 184.508 294.324ZM335.418 171.544C355.366 144.629 363.187 123.393 363.187 102.39C363.187 73.8316 350.411 48.6758 326.388 30.8502C322.009 27.6227 310.635 21.6918 304.438 19.5715L304.408 19.5615L304.379 19.5514C294.23 16.0318 287.459 14.9208 275.013 14.8547" fill="url(#paint0_linear_283_1164)"/>
<defs>
<linearGradient id="paint0_linear_283_1164" x1="189.362" y1="307.87" x2="189.362" y2="0" gradientUnits="userSpaceOnUse">
<stop offset="0.0104167" stop-color="#E70E6B"/>
<stop offset="0.520833" stop-color="#A168EC"/>
<stop offset="1" stop-color="#6B68B0"/>
</linearGradient>
</defs>
</svg>
