<svg width="1920" height="522" viewBox="0 0 1920 522" fill="none" xmlns="http://www.w3.org/2000/svg">
<path d="M402.5 72.5C345.3 80.5 109.833 30.1667 0 4V522L1920 522.5L1919.5 16.5C1899.67 35.1667 1856.8 76.4 1844 92C1828 111.5 1684 186.5 1416.5 115C1149 43.5 973 4 911 4C849 4 474 62.5 402.5 72.5Z" fill="#A682DF"/>
<path fill-rule="evenodd" clip-rule="evenodd" d="M661.725 51.4241C591.378 64.7864 519.576 78.4249 444.323 82.9629C296.995 91.8473 86.5481 36.4983 0 12.5V0.999999C86.1698 24.8934 299.258 71.7199 443.13 63.044C516.998 58.5895 587.307 45.2404 657.595 31.8952C673.155 28.9409 688.715 25.9867 704.311 23.1294C790.055 7.42059 876.533 -5.26451 968.155 2.1963C1122.41 14.7577 1229.53 46.6963 1324.58 76.0645C1327.88 77.0845 1331.17 78.101 1334.44 79.1131C1425.35 107.24 1505.44 132.02 1607.61 134.867C1775.83 139.555 1886.69 50.0264 1920 6V26.5C1883.36 74.9312 1782.55 159.705 1607.06 154.815C1502.13 151.891 1419.72 126.388 1329.22 98.3822C1325.74 97.3033 1322.24 96.2206 1318.73 95.1354C1224.07 65.8861 1118.6 34.4679 966.546 22.0858C877.659 14.8477 793.326 27.1062 707.884 42.7596C692.554 45.5682 677.175 48.4895 661.725 51.4241Z" fill="url(#paint0_linear_283_815)"/>
<defs>
<linearGradient id="paint0_linear_283_815" x1="960" y1="0" x2="960" y2="155.017" gradientUnits="userSpaceOnUse">
<stop offset="0.0104167" stop-color="#E70E6B"/>
<stop offset="0.520833" stop-color="#A168EC"/>
<stop offset="1" stop-color="#6B68B0"/>
</linearGradient>
</defs>
</svg>
