<svg width="320" height="719" viewBox="0 0 320 719" fill="none" xmlns="http://www.w3.org/2000/svg">
<g clip-path="url(#clip0_325_5553)">
<path d="M191 70.0425C106.398 78.1135 0 7 0 7V719H320V45.0257C268.7 43.7748 246.374 64.7599 191 70.0425Z" fill="#A682DF"/>
<path d="M3.16042 2.01608C3.94224 2.52191 5.10732 3.26772 6.62439 4.21699C9.65883 6.11571 14.0998 8.82735 19.6974 12.0601C30.8972 18.5282 46.7034 27.0686 65.1206 35.3554C102.127 52.0065 148.981 67.3106 190.07 63.4007C214.718 61.0554 232.634 55.5667 249.941 50.2648L249.982 50.2522C251.731 49.7164 253.474 49.1826 255.217 48.6541C274.281 42.8737 293.628 37.7874 320 38.4288V47.357C297.328 47.3741 275.481 51.8983 257.833 57.2493C256.092 57.7773 254.342 58.3137 252.577 58.8547L252.554 58.8619C235.242 64.1685 216.519 69.9078 190.924 72.3433C147.411 76.4838 98.7647 60.3471 61.4219 43.5448C42.6645 35.1049 26.5836 26.4155 15.19 19.8354C9.49093 16.5441 1.84397 11.8281 1.84397 11.8281L0.000543356 10.731L0 0L2.06158 1.29852C2.20339 1.39238 2.57408 1.63671 3.16042 2.01608Z" fill="url(#paint0_linear_325_5553)"/>
</g>
<defs>
<linearGradient id="paint0_linear_325_5553" x1="160" y1="0" x2="160" y2="73" gradientUnits="userSpaceOnUse">
<stop offset="0.0104167" stop-color="#E70E6B"/>
<stop offset="0.520833" stop-color="#A168EC"/>
<stop offset="1" stop-color="#6B68B0"/>
</linearGradient>
<clipPath id="clip0_325_5553">
<rect width="320" height="719" fill="white"/>
</clipPath>
</defs>
</svg>
