<svg width="30" height="18" viewBox="0 0 30 18" fill="none" xmlns="http://www.w3.org/2000/svg">
<path d="M13.2227 1.0212C11.3852 1.08682 10.7672 1.27276 10.3352 1.89073C10.193 2.09307 10.2203 2.15323 10.5047 2.21339C11.0844 2.33917 11.4945 2.62354 11.675 3.01729C12.0195 3.80479 12.1125 5.70245 11.8883 7.41417C11.7734 8.26182 11.5547 8.7212 11.2266 8.79229C10.7945 8.88526 10.0672 8.28917 9.44922 7.3376C8.95703 6.58292 7.57891 3.91964 7.125 2.84776C6.84062 2.17511 6.72031 2.01104 6.38125 1.83604L6.11328 1.69932L3.92578 1.71573C2.72266 1.7212 1.64531 1.74307 1.53047 1.75948C1.41563 1.77589 1.25156 1.85245 1.16406 1.92901C1.02188 2.04385 1 2.10401 1 2.34464C1 2.57432 1.07656 2.7876 1.44297 3.60792C2.82656 6.68135 4.37969 9.39932 6.02031 11.6196C7.32734 13.3915 8.10937 14.2173 9.20859 14.9939C10.7617 16.0931 11.932 16.6181 13.332 16.8478C13.9992 16.9571 16.4656 16.9571 16.7664 16.8532C17.2422 16.6782 17.357 16.454 17.4117 15.5353C17.4773 14.4415 17.7234 13.7962 18.2156 13.4134C18.6969 13.0415 19.1727 13.3368 20.4797 14.8079C21.3438 15.7814 21.7812 16.2079 22.2133 16.4814C22.5469 16.6946 23.0227 16.8915 23.3453 16.9571C23.5969 17.0009 25.1008 16.9954 26.9875 16.9353L28.3383 16.8915L28.6008 16.7329C28.9016 16.547 29 16.3884 29 16.0767C29 15.2673 28.2891 14.2884 26.1289 12.1446C24.532 10.5587 24.4227 10.411 24.4773 9.91339C24.5266 9.53057 24.7016 9.2626 26.1289 7.35948C27.9773 4.89854 28.5898 3.94151 28.8961 3.04464C29.0383 2.63448 29.0328 2.16417 28.8906 2.01104C28.6172 1.7212 28.5789 1.71573 25.7188 1.72667C24.1766 1.72667 22.9844 1.75401 22.8641 1.78682C22.5852 1.85792 22.4375 2.06026 22.1641 2.74385C22.0328 3.07198 21.6828 3.8212 21.3875 4.40635C20.2992 6.58292 19.025 8.36026 18.2977 8.71026C18.1391 8.79229 18.1117 8.78682 17.9148 8.68839C17.7781 8.61729 17.6687 8.49698 17.5867 8.33839C17.368 7.91729 17.3461 7.41964 17.4117 4.92589C17.4773 2.45948 17.4609 2.19151 17.2258 1.73214C17.1602 1.59542 17.0398 1.43682 16.9633 1.38214C16.7555 1.22901 16.0445 1.07589 15.4102 1.04307C15.1094 1.02667 14.743 1.00479 14.5898 0.993855C14.4422 0.988386 13.8242 0.999323 13.2227 1.0212Z" fill="white" fill-opacity="0.2" stroke="#F1E9FF"/>
</svg>
