<svg width="40" height="40" viewBox="0 0 40 40" fill="none" xmlns="http://www.w3.org/2000/svg">
<path d="M18.2227 12.0212C16.3852 12.0868 15.7672 12.2728 15.3352 12.8907C15.193 13.0931 15.2203 13.1532 15.5047 13.2134C16.0844 13.3392 16.4945 13.6235 16.675 14.0173C17.0195 14.8048 17.1125 16.7024 16.8883 18.4142C16.7734 19.2618 16.5547 19.7212 16.2266 19.7923C15.7945 19.8853 15.0672 19.2892 14.4492 18.3376C13.957 17.5829 12.5789 14.9196 12.125 13.8478C11.8406 13.1751 11.7203 13.011 11.3812 12.836L11.1133 12.6993L8.92578 12.7157C7.72266 12.7212 6.64531 12.7431 6.53047 12.7595C6.41563 12.7759 6.25156 12.8524 6.16406 12.929C6.02188 13.0439 6 13.104 6 13.3446C6 13.5743 6.07656 13.7876 6.44297 14.6079C7.82656 17.6814 9.37969 20.3993 11.0203 22.6196C12.3273 24.3915 13.1094 25.2173 14.2086 25.9939C15.7617 27.0931 16.932 27.6181 18.332 27.8478C18.9992 27.9571 21.4656 27.9571 21.7664 27.8532C22.2422 27.6782 22.357 27.454 22.4117 26.5353C22.4773 25.4415 22.7234 24.7962 23.2156 24.4134C23.6969 24.0415 24.1727 24.3368 25.4797 25.8079C26.3438 26.7814 26.7812 27.2079 27.2133 27.4814C27.5469 27.6946 28.0227 27.8915 28.3453 27.9571C28.5969 28.0009 30.1008 27.9954 31.9875 27.9353L33.3383 27.8915L33.6008 27.7329C33.9016 27.547 34 27.3884 34 27.0767C34 26.2673 33.2891 25.2884 31.1289 23.1446C29.532 21.5587 29.4227 21.411 29.4773 20.9134C29.5266 20.5306 29.7016 20.2626 31.1289 18.3595C32.9773 15.8985 33.5898 14.9415 33.8961 14.0446C34.0383 13.6345 34.0328 13.1642 33.8906 13.011C33.6172 12.7212 33.5789 12.7157 30.7188 12.7267C29.1766 12.7267 27.9844 12.754 27.8641 12.7868C27.5852 12.8579 27.4375 13.0603 27.1641 13.7439C27.0328 14.072 26.6828 14.8212 26.3875 15.4064C25.2992 17.5829 24.025 19.3603 23.2977 19.7103C23.1391 19.7923 23.1117 19.7868 22.9148 19.6884C22.7781 19.6173 22.6687 19.497 22.5867 19.3384C22.368 18.9173 22.3461 18.4196 22.4117 15.9259C22.4773 13.4595 22.4609 13.1915 22.2258 12.7321C22.1602 12.5954 22.0398 12.4368 21.9633 12.3821C21.7555 12.229 21.0445 12.0759 20.4102 12.0431C20.1094 12.0267 19.743 12.0048 19.5898 11.9939C19.4422 11.9884 18.8242 11.9993 18.2227 12.0212Z" fill="white" fill-opacity="0.2" stroke="#F1E9FF"/>
</svg>
