<svg width="30" height="21" viewBox="0 0 30 21" fill="none" xmlns="http://www.w3.org/2000/svg">
<path d="M10.5416 1.03055C7.49126 1.12656 5.3274 1.27904 4.31838 1.4767C3.05857 1.72519 2.02622 2.60618 1.62961 3.76955C1.18634 5.05151 0.906381 8.98211 1.02886 12.0825C1.16884 15.4597 1.44297 17.1483 1.99706 17.9559C2.65029 18.9103 3.48434 19.379 4.88414 19.5767C7.37461 19.9268 13.7203 20.0906 19.0279 19.9494C23.3439 19.8308 25.4728 19.6501 26.3768 19.3225C26.8143 19.1644 27.4617 18.707 27.7825 18.3286C28.4474 17.5436 28.6807 16.6118 28.9256 13.8219C29.0248 12.6925 29.0248 8.18018 28.9256 7.04505C28.7857 5.4073 28.6165 4.39077 28.3832 3.70178C28.0624 2.76431 27.1176 1.88331 26.1144 1.59529C25.3503 1.3694 23.6356 1.19997 20.9818 1.08703C19.1679 1.00796 12.4955 0.968431 10.5416 1.03055ZM15.8259 8.47385C17.7156 9.52427 19.302 10.4109 19.3545 10.4391C19.4304 10.4787 18.6255 10.9474 15.9017 12.4666C13.9478 13.5509 12.3206 14.4488 12.2914 14.4601C12.2506 14.4771 12.2331 13.0878 12.2331 10.49C12.2331 7.12411 12.2447 6.5029 12.3147 6.52549C12.3555 6.54243 13.9362 7.41778 15.8259 8.47385Z" fill="white" fill-opacity="0.2" stroke="#F1E9FF"/>
</svg>
