<svg width="380" height="380" viewBox="0 0 380 380" fill="none" xmlns="http://www.w3.org/2000/svg">
<path d="M92.6955 39.9131C80.149 41.6271 66.8882 46.0744 56.3537 52.1074C31.0568 66.6873 13.6569 90.7007 7.51956 119.618C5.73567 128.25 5.75675 149.116 7.55808 157.752C14.6905 191.144 40.5411 227.793 84.2481 266.475C110.659 289.814 139.003 310.564 173.873 332.185C190.591 342.491 189.013 341.914 193.814 339.184C216.101 326.688 251.356 302.837 274.211 284.729C301.437 263.244 328.013 236.793 343.265 216.159C363.744 188.336 373.042 164.602 373.017 139.923C372.984 107.258 358.255 78.3906 331.346 58.289C325.821 54.1822 313.409 47.694 306.093 45.1682C294.544 41.1272 286.369 39.8237 272.888 39.738C256.038 39.6487 244.567 42.0833 230.305 48.6881C217.118 54.7903 201.714 67.2219 193.55 78.2218C191.545 80.8819 189.683 83.1105 189.397 83.1102C189.11 83.1099 187.243 80.9495 185.304 78.2134C183.294 75.5492 178.628 70.436 174.968 66.9066C161.546 53.9419 145.332 45.2913 126.613 41.243C119.011 39.5803 100.654 38.842 92.6955 39.9131Z" fill="white"/>
<path d="M182.234 159.842C178.787 160.161 175.803 160.704 175.298 161.115C174.14 162.07 174.522 163.967 175.952 164.351C176.307 164.444 176.852 164.404 178.201 164.152C179.741 163.887 181.171 163.701 183.556 163.503L184.128 163.463L184.169 170.372C184.21 176.777 184.224 177.321 184.455 177.652C185.232 178.819 187.113 178.846 187.821 177.705C188.08 177.294 188.094 176.989 188.094 170.425C188.094 166.659 188.135 163.542 188.203 163.516C188.407 163.41 191.391 163.715 193.408 164.046C194.566 164.245 195.752 164.404 196.038 164.391C197.85 164.338 198.423 161.779 196.815 160.97C196.31 160.718 194.307 160.333 191.909 160.028C189.92 159.789 184.156 159.67 182.234 159.842Z" fill="#5B5A7A"/>
<path d="M89.6153 160.24C88.716 160.771 88.7433 160.426 88.7569 169.603C88.7569 178.753 88.7296 178.422 89.6153 178.939C90.0241 179.191 90.3376 179.204 95.0114 179.204C100.53 179.204 100.898 179.164 102.547 178.316C103.719 177.719 104.591 176.817 105.204 175.531C105.667 174.602 105.708 174.403 105.763 173.077C105.844 171.327 105.599 170.279 104.85 169.152C103.664 167.388 101.743 166.367 99.1811 166.155C98.7315 166.115 97.0554 166.089 95.4747 166.075H92.5723V164.749V163.423H97.3824C101.77 163.423 102.22 163.396 102.642 163.184C103.146 162.919 103.61 162.216 103.61 161.725C103.61 161.248 103.269 160.572 102.86 160.267C102.492 159.975 102.438 159.975 96.2651 159.975C90.3376 159.975 90.0378 159.988 89.6153 160.24ZM100.149 169.881C100.871 170.253 101.511 170.982 101.688 171.605C102.111 173.051 101.634 174.549 100.53 175.212C99.5899 175.796 98.8405 175.902 95.5701 175.862L92.6404 175.822L92.5995 172.666L92.5723 169.51L96.0743 169.55C99.3855 169.59 99.6172 169.603 100.149 169.881Z" fill="#5B5A7A"/>
<path d="M133.221 162.495C130.754 162.747 128.22 164.179 127.647 165.638C127.225 166.699 127.838 167.706 128.996 167.892C129.528 167.972 130.127 167.72 130.918 167.057C132.049 166.115 133.452 165.717 134.869 165.943C136.45 166.195 137.295 167.149 137.486 168.913C137.554 169.616 137.54 169.841 137.39 169.934C137.281 170.001 135.946 170.054 134.406 170.054C131.435 170.054 130.427 170.2 129.323 170.73C128.288 171.234 127.634 171.87 127.157 172.799C126.762 173.581 126.721 173.793 126.721 174.815C126.721 176.698 127.525 177.997 129.187 178.833C130.318 179.403 131.204 179.602 132.675 179.602C134.433 179.602 135.932 179.164 137.077 178.329L137.499 178.024L137.745 178.554C138.112 179.323 138.726 179.655 139.679 179.575C140.347 179.522 140.511 179.443 140.906 179.032L141.356 178.541V173.197C141.356 168.887 141.315 167.706 141.151 167.096C140.265 163.768 137.363 162.084 133.221 162.495ZM137.458 172.958C137.499 173.011 137.458 173.369 137.349 173.74C136.886 175.504 135.333 176.592 133.316 176.578C131.558 176.578 130.386 175.517 130.741 174.258C130.904 173.674 131.367 173.263 132.103 173.037C132.784 172.825 137.336 172.759 137.458 172.958Z" fill="#5B5A7A"/>
<path d="M164.044 162.495C160.46 162.853 157.299 165.571 156.467 168.993C156.208 170.04 156.249 172.189 156.535 173.223C157.666 177.281 161.291 179.774 165.733 179.575C168.132 179.456 169.944 178.687 171.606 177.082C173.092 175.623 173.827 174.138 174.1 172.003C174.55 168.515 172.683 165.054 169.481 163.449C167.818 162.614 166.006 162.309 164.044 162.495ZM167.205 166.407C168.241 166.858 169.167 167.759 169.671 168.834C170.135 169.815 170.244 171.512 169.917 172.6C168.922 175.955 164.589 177.188 161.945 174.881C160.732 173.82 160.051 171.95 160.296 170.319C160.514 168.94 160.828 168.33 161.795 167.375C162.545 166.645 162.844 166.447 163.567 166.221C164.779 165.837 166.06 165.903 167.205 166.407Z" fill="#5B5A7A"/>
<path d="M224.517 162.495C221.601 162.786 219.053 164.484 217.731 167.017C216.954 168.489 216.777 169.258 216.791 171.115C216.804 172.547 216.845 172.905 217.159 173.74C217.649 175.106 218.262 176.074 219.298 177.082C220.988 178.713 222.786 179.469 225.239 179.575C226.452 179.615 226.956 179.575 227.842 179.363C230.567 178.687 232.516 177.202 233.742 174.828C234.492 173.382 234.778 171.672 234.56 169.948C233.946 165.16 229.668 161.991 224.517 162.495ZM227.024 166.142C229.968 166.99 231.453 170.438 230.104 173.263C228.578 176.432 224.449 177.056 222.037 174.496C219.502 171.778 220.715 167.216 224.272 166.128C225.021 165.903 226.193 165.903 227.024 166.142Z" fill="#5B5A7A"/>
<path d="M238.24 162.601C237.981 162.72 237.626 163.025 237.463 163.277L237.149 163.728V173.953C237.149 183.607 237.163 184.204 237.395 184.628C238.09 185.875 240.079 185.861 240.788 184.615C241.006 184.23 241.033 183.753 241.074 180.968L241.115 177.759L241.755 178.196C243.2 179.204 244.521 179.602 246.415 179.602C248.786 179.602 250.531 178.912 252.152 177.347C253.76 175.796 254.51 174.112 254.687 171.685C254.837 169.483 254.332 167.547 253.133 165.783C252.411 164.723 251.58 163.993 250.353 163.357C249.059 162.694 248.078 162.481 246.415 162.481C244.344 162.481 242.75 162.972 241.605 163.953C241.033 164.444 240.965 164.444 240.965 163.98C240.965 163.171 240.038 162.362 239.098 162.362C238.894 162.362 238.498 162.468 238.24 162.601ZM247.969 166.46C251.348 168.078 251.675 173.197 248.541 175.292C247.669 175.875 246.334 176.207 245.407 176.101C244.058 175.928 243.404 175.637 242.518 174.775C241.837 174.112 241.633 173.807 241.374 173.037C240.76 171.274 241.006 169.218 241.96 167.852C243.227 166.035 245.843 165.439 247.969 166.46Z" fill="#5B5A7A"/>
<path d="M258.706 162.495C258.461 162.548 258.134 162.707 257.984 162.839C257.303 163.436 257.316 163.33 257.316 171.075C257.316 178.05 257.33 178.355 257.589 178.766C258.093 179.589 259.388 179.867 260.273 179.337C261.023 178.899 261.064 178.74 261.132 175.425L261.2 172.374L262.862 172.335L264.525 172.295L264.62 172.666C264.879 173.807 265.029 174.191 265.533 175.159C267.087 178.09 270.207 179.748 273.791 179.562C276.23 179.443 278.138 178.607 279.827 176.923C281.381 175.385 282.253 173.276 282.266 171.115C282.294 167.096 279.473 163.595 275.481 162.68C274.295 162.415 272.088 162.415 271.011 162.694C268.231 163.396 265.874 165.492 264.988 168.051L264.688 168.926H262.944H261.2L261.132 166.168L261.064 163.396L260.56 162.946C260.273 162.694 259.933 162.495 259.783 162.495C259.633 162.495 259.442 162.468 259.333 162.442C259.238 162.415 258.952 162.442 258.706 162.495ZM274.636 166.155C277.565 166.977 279.023 170.067 277.879 173.051C277.661 173.621 277.361 174.045 276.748 174.642C273.396 177.891 267.986 175.252 268.395 170.558C268.572 168.476 269.894 166.818 271.856 166.208C272.837 165.903 273.668 165.876 274.636 166.155Z" fill="#5B5A7A"/>
<path d="M112.236 163.012C111.268 163.449 111.2 163.701 111.091 167.202C110.914 172.746 110.164 174.761 107.78 176.114C106.867 176.631 106.54 177.082 106.567 177.825C106.649 180.079 109.66 179.96 112.058 177.599C113.939 175.743 114.866 172.865 115.043 168.33L115.124 166.142H117.373H119.621L119.689 172.242C119.757 177.918 119.771 178.369 120.016 178.753C120.698 179.854 122.374 179.907 123.219 178.859C123.505 178.514 123.505 178.408 123.505 171.274C123.505 164.258 123.491 164.033 123.232 163.622C122.714 162.8 122.401 162.76 117.332 162.76C113.176 162.76 112.767 162.786 112.236 163.012Z" fill="#5B5A7A"/>
<path d="M145.893 163.012C144.803 163.503 144.83 163.29 144.789 170.65C144.762 174.218 144.789 177.467 144.83 177.865C144.966 178.886 145.539 179.483 146.506 179.575C147.378 179.655 147.937 179.443 148.346 178.886C148.646 178.475 148.646 178.422 148.714 172.308L148.782 166.142L152.529 166.075C156.59 166.009 156.726 165.982 157.108 165.253C157.38 164.736 157.298 163.794 156.944 163.396C156.385 162.786 156.086 162.76 151.139 162.76C146.847 162.76 146.424 162.786 145.893 163.012Z" fill="#5B5A7A"/>
<path d="M201.107 163.012C200.044 163.489 200.085 163.171 200.085 171.115V178.17L200.617 178.687L201.148 179.204H205.645C209.733 179.204 210.223 179.178 211.014 178.939C213.398 178.223 214.665 176.592 214.665 174.231C214.665 173.236 214.625 173.037 214.216 172.282C213.902 171.685 213.575 171.3 213.071 170.942L212.363 170.425L212.771 169.881C214.025 168.184 213.766 165.532 212.213 164.166C210.891 162.999 209.678 162.76 205.127 162.76C202.047 162.76 201.598 162.786 201.107 163.012ZM209.011 166.261C210.155 166.725 210.169 168.369 209.038 168.953C208.67 169.139 208.207 169.178 206.217 169.192H203.832L203.792 167.627L203.751 166.075H206.149C207.907 166.075 208.67 166.128 209.011 166.261ZM209.992 172.547C210.632 172.865 210.918 173.223 211.041 173.833C211.177 174.43 210.646 175.345 209.964 175.677C209.46 175.928 209.174 175.955 206.626 175.955H203.832L203.792 174.244C203.778 173.289 203.792 172.441 203.832 172.335C203.887 172.175 204.378 172.162 206.667 172.202C209.188 172.242 209.46 172.282 209.992 172.547Z" fill="#5B5A7A"/>
<path d="M174.372 178.554C173.705 178.74 173.241 179.376 173.241 180.079C173.241 180.888 173.486 181.299 174.495 182.161C176.689 184.018 178.964 185.172 181.894 185.914C183.761 186.392 187.113 186.511 189.211 186.166C192.536 185.636 195.561 184.217 198.001 182.055C199.118 181.074 199.363 180.557 199.132 179.721C198.886 178.873 197.769 178.223 196.951 178.475C196.801 178.528 196.188 178.952 195.616 179.416C192.659 181.83 190.247 182.771 186.663 182.891C182.902 183.01 179.864 182.015 177.152 179.774C175.694 178.567 175.653 178.554 175.217 178.488C174.999 178.448 174.617 178.475 174.372 178.554Z" fill="url(#paint0_linear_283_1147)"/>
<path fill-rule="evenodd" clip-rule="evenodd" d="M193.481 340.125C192.005 340.959 191.115 341.597 190.135 341.801C187.833 342.279 185.032 340.366 172.987 332.996C137.158 310.947 108.038 289.779 80.9092 265.966C36.0131 226.498 9.47361 189.088 2.17524 154.985C0.332213 146.165 0.332213 124.851 2.17524 116.032C8.51524 86.4856 26.4294 61.9374 52.4529 47.0175C63.2899 40.8437 76.9283 36.2869 89.8294 34.5229C98.0124 33.4205 116.885 34.1555 124.699 35.8459C143.941 39.9617 160.602 48.7814 174.387 62.011C176.038 63.5925 177.888 65.4858 179.619 67.3424C179.636 67.36 179.652 67.3777 179.668 67.3953C181.86 69.7479 183.854 72.0362 185.003 73.55C186.994 76.3429 188.91 78.5479 189.205 78.5479C189.5 78.5479 191.417 76.2694 193.481 73.55C194.998 71.5205 196.757 69.4431 198.702 67.3645C198.719 67.3464 198.736 67.3283 198.753 67.3102C207.58 57.8897 220.205 48.4526 231.3 43.3426C245.97 36.5809 257.766 34.0819 275.09 34.1555C288.95 34.2289 297.354 35.5519 309.223 39.6678C316.742 42.2402 329.496 48.8549 335.173 53.0443C362.818 73.55 377.931 103.022 377.931 136.39C377.931 161.6 368.347 185.854 347.263 214.298C331.56 235.391 304.21 262.438 276.196 284.414C252.679 302.935 216.408 327.336 193.481 340.125ZM335.418 205.544C320.702 225.31 294.379 251.446 267.079 272.862L267.056 272.879C245.056 290.206 211.465 312.9 189.188 325.654C187.779 324.809 186.09 323.773 183.966 322.47C182.981 321.866 181.903 321.204 180.716 320.478C145.481 298.793 117.058 278.111 90.6556 254.936C90.6545 254.935 90.6534 254.934 90.6523 254.933C46.6368 216.238 22.9297 181.452 16.6031 151.956C16.0072 149.076 15.5372 142.809 15.5372 135.508C15.5372 128.21 16.007 121.944 16.6026 119.063C22.0812 93.5893 37.4347 72.5919 59.7831 59.7716C68.9005 54.5805 80.7071 50.6103 91.8109 49.0891C94.6007 48.7143 100.324 48.5764 106.837 48.8257C113.371 49.0759 118.981 49.6504 121.573 50.2111L121.59 50.2147L121.606 50.2183C138.211 53.7701 152.389 61.3029 164.162 72.6014L164.167 72.6061L164.172 72.6108C167.531 75.828 171.615 80.315 173.139 82.2814C174.294 83.8896 175.466 85.3922 176.489 86.5964C176.998 87.1956 177.63 87.9105 178.302 88.5776C178.604 88.877 179.19 89.4444 179.952 90.0369C180.314 90.319 181.042 90.8631 182.031 91.405L182.064 91.4231C182.655 91.7482 185.384 93.2473 189.205 93.2473C193.132 93.2473 195.924 91.6646 196.506 91.3343L196.543 91.3132C197.532 90.7553 198.255 90.1983 198.607 89.9173C199.349 89.3247 199.92 88.7591 200.204 88.4728C200.839 87.8303 201.447 87.1376 201.922 86.579C202.929 85.3961 204.102 83.9176 205.238 82.4203L205.271 82.3766L205.304 82.3327C212.173 73.1417 226.048 61.9536 237.483 56.687L237.487 56.6852C250.076 50.8827 259.72 48.7913 275.012 48.8547M184.508 328.324C184.507 328.325 184.525 328.315 184.565 328.293C184.528 328.312 184.508 328.323 184.508 328.324ZM335.418 205.544C355.366 178.629 363.187 157.393 363.187 136.39C363.187 107.832 350.411 82.6758 326.388 64.8502C322.009 61.6227 310.635 55.6918 304.438 53.5715L304.408 53.5615L304.379 53.5514C294.23 50.0318 287.459 48.9208 275.013 48.8547" fill="url(#paint1_linear_283_1147)"/>
<defs>
<linearGradient id="paint0_linear_283_1147" x1="198.689" y1="179.533" x2="173.656" y2="179.533" gradientUnits="userSpaceOnUse">
<stop stop-color="#E80D6A"/>
<stop offset="0.505208" stop-color="#A65590"/>
<stop offset="1" stop-color="#6A68B0"/>
</linearGradient>
<linearGradient id="paint1_linear_283_1147" x1="189.362" y1="341.87" x2="189.362" y2="34" gradientUnits="userSpaceOnUse">
<stop offset="0.0104167" stop-color="#E70E6B"/>
<stop offset="0.520833" stop-color="#A168EC"/>
<stop offset="1" stop-color="#6B68B0"/>
</linearGradient>
</defs>
</svg>
