<svg width="25" height="27" viewBox="0 0 25 27" fill="none" xmlns="http://www.w3.org/2000/svg">
<path d="M8.24226 0.0825005C4.96484 0.404438 2.12786 0.954416 1.64855 1.37025C0.547444 2.33607 0.910162 4.25429 2.27036 4.6433C2.60717 4.73719 3.12534 4.69695 4.4078 4.44208C5.87163 4.1738 7.23183 3.986 9.49882 3.78479L10.0429 3.74455L10.0818 10.7333C10.1206 17.2123 10.1336 17.7623 10.3538 18.0976C11.0922 19.2781 12.8799 19.3049 13.5535 18.1513C13.7996 17.7355 13.8126 17.4269 13.8126 10.787C13.8126 6.97735 13.8514 3.82504 13.9162 3.79821C14.1105 3.69089 16.9475 3.99942 18.8647 4.33477C19.9658 4.53598 21.0928 4.69695 21.3649 4.68354C23.0878 4.62988 23.6319 2.04096 22.1033 1.2227C21.624 0.967831 19.7197 0.578821 17.4398 0.270298C15.5484 0.0288429 10.0688 -0.0918827 8.24226 0.0825005Z" fill="#5B5A7A"/>
<path d="M1.08876 19.1354C0.446 19.3224 0 19.9634 0 20.6711C0 21.4857 0.236118 21.8997 1.20682 22.7677C3.31876 24.6373 5.50941 25.7991 8.3297 26.547C10.1268 27.0277 13.3538 27.1479 15.3739 26.8007C18.5746 26.2665 21.4867 24.8376 23.8348 22.6609C24.9104 21.6727 25.1465 21.1519 24.9235 20.3106C24.6874 19.4559 23.6118 18.8015 22.8247 19.0553C22.6804 19.1087 22.0901 19.536 21.5392 20.0034C18.6926 22.4339 16.3708 23.382 12.9209 23.5022C9.30041 23.6224 6.37518 22.6208 3.76476 20.364C2.36118 19.1488 2.32182 19.1354 1.90206 19.0686C1.69218 19.0286 1.32488 19.0553 1.08876 19.1354Z" fill="url(#paint0_linear_172_488)"/>
<defs>
<linearGradient id="paint0_linear_172_488" x1="24.4974" y1="20.121" x2="0.39909" y2="20.121" gradientUnits="userSpaceOnUse">
<stop stop-color="#E80D6A"/>
<stop offset="0.505208" stop-color="#A65590"/>
<stop offset="1" stop-color="#6A68B0"/>
</linearGradient>
</defs>
</svg>
