<svg width="586" height="473" viewBox="0 0 586 473" fill="none" xmlns="http://www.w3.org/2000/svg">
<g clip-path="url(#clip0_18_245)">
<path d="M143.693 0.802551C123.887 3.5101 102.948 10.5046 86.3108 19.981C46.3583 42.8823 18.8556 80.5623 9.12212 125.914C6.29263 139.451 6.29263 172.168 9.12212 185.705C20.3269 238.051 61.0717 295.474 129.998 356.055C171.648 392.607 216.354 425.097 271.36 458.942C297.731 475.074 295.241 474.172 302.824 469.885C338.023 450.255 393.707 412.801 429.812 384.371C472.82 350.64 514.81 309.124 538.917 276.747C571.287 233.087 586 195.859 586 157.163C586 105.946 562.798 60.707 520.356 29.2318C511.641 22.8014 492.061 12.6481 480.516 8.69955C462.294 2.38196 449.392 0.351288 428.114 0.238495C401.517 0.125671 383.408 3.96136 360.885 14.3403C340.06 23.9295 315.726 43.4464 302.824 60.707C299.655 64.8811 296.712 68.3784 296.259 68.3784C295.807 68.3784 292.864 64.9939 289.808 60.707C286.639 56.5329 279.283 48.523 273.51 42.9951C252.346 22.6885 226.767 9.15082 197.227 2.83322C185.23 0.238495 156.256 -0.889648 143.693 0.802551Z" fill="#BC0DE8" fill-opacity="0.1"/>
<mask id="mask0_18_245" style="mask-type:alpha" maskUnits="userSpaceOnUse" x="7" y="0" width="577" height="473">
<path d="M143.221 0.802795C123.483 3.51035 102.617 10.5049 86.0368 19.9812C46.2224 42.8826 18.8146 80.5626 9.11479 125.914C6.29507 139.452 6.29507 172.168 9.11479 185.706C20.2809 238.051 60.8849 295.474 129.573 356.055C171.08 392.607 215.631 425.098 270.447 458.942C296.727 475.074 294.245 474.172 301.802 469.885C336.879 450.255 392.372 412.801 428.351 384.372C471.211 350.64 513.056 309.125 537.08 276.747C569.337 233.088 584 195.859 584 157.164C584 105.946 560.878 60.7072 518.582 29.232C509.898 22.8016 490.385 12.6483 478.881 8.6998C460.722 2.3822 447.864 0.351532 426.659 0.238739C400.154 0.125916 382.108 3.96161 359.663 14.3405C338.91 23.9297 314.66 43.4466 301.802 60.7072C298.644 64.8814 295.711 68.3786 295.26 68.3786C294.809 68.3786 291.877 64.9942 288.831 60.7072C285.673 56.5331 278.342 48.5233 272.59 42.9954C251.498 22.6888 226.008 9.15106 196.57 2.83347C184.614 0.238739 155.74 -0.889404 143.221 0.802795Z" fill="#BC0DE8"/>
</mask>
<g mask="url(#mask0_18_245)">
<path fill-rule="evenodd" clip-rule="evenodd" d="M753.261 44.9065C777.949 20.791 786.708 3.8384 788.666 -9.55792C788.779 -10.3288 788.89 -11.1026 789.002 -11.8782L789.003 -11.8861C791.027 -25.935 793.14 -40.597 803.718 -49.9361C820.174 -64.464 833.703 -74.0682 840.404 -76.5874L793.806 -135.32C769.944 -100.624 736.426 -87.6924 733.85 -87.7504C723.67 -87.9794 713.365 -89.102 703.035 -90.2273C685.811 -92.1037 668.516 -93.9878 651.615 -91.7495C643.95 -90.7344 616.858 -95.6985 605.169 -103.313C593.48 -110.928 588.556 -106.458 584.526 -101.572C580.496 -96.6862 588.502 -84.4604 600.465 -76.5001C609.857 -70.2502 622.713 -67.0948 631.037 -65.0513L631.038 -65.0511C633.316 -64.492 635.255 -64.0161 636.691 -63.5828C643.373 -61.5662 652.378 -55.1994 657.151 -44.9125C661.924 -34.6256 637.938 -15.0325 628.234 -7.33347C622.476 -2.76474 602.705 8.95664 583.108 20.5748L583.107 20.5751C569.68 28.5354 556.335 36.4472 547.635 41.9768C526.236 55.577 528.882 75.9954 554.9 63.2344C580.918 50.4733 623.685 28.9275 631.785 24.1897C639.885 19.4519 646.899 24.0208 637.541 31.4449C635.345 33.1874 630.415 36.9745 624.027 41.8821L624.026 41.8826C603.198 57.8838 566.864 85.796 559.216 93.5872C549.223 103.768 559.768 118.483 571.825 109.479C581.471 102.277 632.699 66.6248 657.107 49.6991C660.282 49.4313 665.606 50.1618 661.492 55.2269C656.35 61.5582 617.56 100.216 601.602 115.691C585.644 131.167 603.943 141.419 615.033 132.62C621.448 127.531 642.512 107.805 660.273 91.1727C673.218 79.0499 684.409 68.5706 686.893 66.5999C692.784 61.9255 695.727 66.3462 691.278 72.1276C689.155 74.8863 682.935 82.6902 676.007 91.3826C668.415 100.907 659.973 111.498 655.14 117.688C645.896 129.525 657.626 142.174 669.079 130.273C671.038 128.238 673.263 125.892 675.867 123.147C688.487 109.843 710.008 87.1563 753.261 44.9065ZM681.474 26.062C689.168 33.2447 698.63 37.2688 708.967 37.7428C722.216 38.3611 734.849 32.9176 743.431 22.8983C751.723 13.2075 755.238 0.44979 753.067 -12.0972C750.855 -24.8628 742.962 -35.8906 731.551 -42.1518C719.332 -48.8622 704.414 -49.1856 691.969 -43.0056C684.571 -39.3267 678.483 -33.7034 674.229 -26.6133C669.04 -17.9728 667.111 -7.57097 668.85 2.45705C670.061 9.41369 672.873 15.7532 677.258 21.3721C678.361 22.7967 680.4 25.0548 681.474 26.062ZM680.047 18.1266C677.203 14.2243 675.267 10.34 674.006 6.00106C672.793 1.85086 672.347 -1.69462 672.492 -6.09572C672.598 -9.47814 673.007 -12.1625 673.891 -15.2778C675.173 -19.8285 677.429 -24.341 680.282 -28.0673C681.775 -30.0097 682.422 -30.7186 684.671 -32.8172C686.919 -34.9158 687.672 -35.5126 689.714 -36.8695C699.97 -43.671 713.099 -45.1026 724.674 -40.701C728.925 -39.082 732.357 -37.0494 736.057 -33.9699C737.424 -32.8263 740.734 -29.301 741.789 -27.866C744.633 -23.9878 746.435 -20.4338 747.775 -16.0984C749.115 -11.7508 749.637 -7.57517 749.416 -2.89291C749.18 2.21139 747.914 7.20317 745.691 11.8254C743.449 16.4772 740.638 20.1868 736.671 23.7375C734.887 25.3323 733.824 26.1603 732.018 27.344C723.063 33.2348 711.755 35.0705 701.244 32.3517C695.224 30.795 689.788 27.8513 684.989 23.5647C683.978 22.6622 680.818 19.172 680.047 18.1266ZM712.364 16.0125C711.331 16.1353 710.161 15.801 709.3 15.1327C708.52 14.5276 707.89 13.4446 707.73 12.4253C707.366 10.0776 709.11 7.85374 711.522 7.60138C714.225 7.32245 716.564 9.81384 716.107 12.4845C715.778 14.3688 714.284 15.7862 712.364 16.0125ZM691.756 -3.55121C692.618 -2.883 693.788 -2.54867 694.821 -2.67149C696.741 -2.8978 698.235 -4.31513 698.564 -6.19942C699.021 -8.87011 696.682 -11.3615 693.978 -11.0826C691.567 -10.8302 689.823 -8.60638 690.187 -6.25862C690.347 -5.23937 690.977 -4.15633 691.756 -3.55121ZM728.131 13.3695C727.88 13.1296 727.613 12.8731 727.341 12.6121C726.267 11.5929 725.351 10.7298 725.303 10.692C725.215 10.6107 725.436 10.3343 726.301 9.44547C728.013 7.66121 729.58 5.12378 730.574 2.50109C733.311 -4.68109 731.801 -12.8303 726.653 -18.6492C722.93 -22.8519 717.644 -25.3983 711.988 -25.6936C706.845 -25.9659 701.452 -24.1583 697.443 -20.8143C696.939 -20.4024 696.517 -20.0664 696.487 -20.0734C696.426 -20.0754 692.406 -24.8311 692.414 -24.8972C692.417 -24.9816 694.45 -26.5863 695.267 -27.1508C700.099 -30.4917 706.085 -32.2677 711.871 -32.0707C717.199 -31.8888 722.496 -30.0784 726.95 -26.9198C730.896 -24.128 734.21 -19.9871 736.107 -15.4825C737.624 -11.8958 738.419 -7.74138 738.295 -3.97947C738.084 2.77309 735.334 9.23062 730.537 14.2566L729.816 15.0113L729.553 14.7431C729.448 14.6317 728.864 14.0719 728.131 13.3695Z" fill="#B947FF"/>
<path fill-rule="evenodd" clip-rule="evenodd" d="M-94.0697 463.413C-93.332 449.894 -86.1415 432.219 -63.7361 405.969C-24.4822 359.98 -5.10192 335.44 6.26322 321.049C8.60829 318.08 10.6121 315.542 12.3789 313.338C22.708 300.449 35.5338 311.986 27.3985 324.611C23.145 331.212 15.6958 342.523 8.99684 352.696C2.88318 361.979 -2.6056 370.314 -4.4701 373.253C-8.37762 379.413 -5.04713 383.55 0.397584 378.361C2.693 376.174 12.8897 364.726 24.6854 351.482C40.8691 333.311 60.0628 311.761 65.9909 306.112C76.2398 296.346 95.3909 304.9 80.8982 321.756C66.4055 338.612 31.2706 380.62 26.7225 387.39C23.0841 392.807 28.4516 393.053 31.5902 392.499C54.3671 373.435 102.16 333.295 111.115 325.249C122.308 315.192 134.141 328.893 125.109 339.936C118.197 348.387 84.5372 379.472 65.2413 397.291C59.3232 402.757 54.7562 406.974 52.7265 408.908C44.0791 417.148 51.4769 421.064 59.1154 415.613C66.7539 410.162 107.396 384.836 132.153 369.774C156.91 354.712 161.393 374.807 141.312 390.287C133.147 396.581 120.572 405.668 107.92 414.81C89.4542 428.153 70.8245 441.615 65.5029 446.686C56.5352 455.231 34.42 476.913 40.1041 486.726C45.7882 496.539 55.3316 502.066 62.1691 503.469C63.6383 503.771 65.6125 504.07 67.9321 504.421C76.4078 505.703 89.4957 507.682 99.4149 513.057C112.049 519.903 121.128 531.354 117.556 536.585C113.985 541.815 109.485 546.712 97.1556 540.186C84.826 533.66 57.3958 531.166 49.8535 532.871C33.2243 536.629 15.8303 536.317 -1.49342 536.006C-11.8828 535.82 -22.247 535.634 -32.4056 536.326C-34.976 536.502 -67.1868 552.412 -87.8136 589.124L-139.533 534.847C-133.087 531.732 -120.482 520.944 -105.408 504.987C-95.7178 494.729 -94.9401 479.936 -94.1948 465.762C-94.1535 464.977 -94.1123 464.193 -94.0697 463.413ZM-24.2777 404.931C-21.3588 405.36 -18.1559 406.498 -15.4991 408.049C-13.8164 409.035 -10.4154 411.919 -9.21022 413.371C-6.23592 416.937 -4.43021 421.002 -3.80488 425.468C-3.63335 426.685 -3.50677 428.353 -3.5213 429.159C-3.56029 429.968 -3.52689 430.657 -3.47206 430.7C-3.41724 430.742 -2.72721 430.598 -1.94518 430.393C1.26418 429.526 6.07307 429.469 9.50984 430.282C13.2275 431.161 15.7864 432.413 18.9964 434.949C21.5622 436.98 22.9309 438.45 24.5347 440.943C25.5559 442.515 26.9581 445.602 27.3998 447.207C29.5361 455.044 28.0293 462.723 23.1423 468.926C19.4501 473.613 14.1162 476.727 6.03063 478.945C0.0220171 480.581 -9.02396 481.628 -17.4505 481.635C-24.5352 481.655 -34.852 480.912 -40.9874 479.952C-41.3843 479.892 -41.6433 479.881 -41.8556 479.776C-42.353 479.529 -42.594 478.765 -43.7533 475.643C-47.1849 466.328 -49.4984 458.154 -51.0543 449.778C-53.6205 435.904 -53.0754 425.086 -49.4376 417.684C-48.4885 415.776 -45.3668 411.813 -43.7325 410.442C-38.2266 405.872 -31.3008 403.916 -24.2777 404.931Z" fill="#E80D6A"/>
</g>
<path fill-rule="evenodd" clip-rule="evenodd" d="M301.785 470.322C299.52 471.603 298.154 472.582 296.648 472.894C293.115 473.628 288.815 470.692 270.325 459.378C215.327 425.532 170.627 393.039 128.982 356.485C60.0646 295.899 19.3252 238.473 8.12185 186.124C5.29272 172.585 5.29272 139.867 8.12185 126.328C17.854 80.9735 45.3532 43.291 85.3005 20.3882C101.936 10.9112 122.871 3.9162 142.675 1.20847C155.236 -0.483856 184.207 0.644348 196.202 3.23926C225.738 9.55728 251.314 23.0959 272.476 43.4039C275.01 45.8315 277.85 48.7379 280.507 51.5879C280.532 51.6149 280.557 51.642 280.582 51.669C283.946 55.2804 287.007 58.7931 288.771 61.1169C291.827 65.4041 294.769 68.7888 295.222 68.7888C295.674 68.7888 298.617 65.2913 301.785 61.1169C304.114 58.0015 306.814 54.8126 309.799 51.6219C309.825 51.5941 309.851 51.5663 309.877 51.5385C323.429 37.0776 342.807 22.5911 359.839 14.7471C382.359 4.36746 400.465 0.531525 427.059 0.644348C448.334 0.757172 461.235 2.78796 479.454 9.10599C490.997 13.0548 510.575 23.2087 519.289 29.6396C561.726 61.1169 584.924 106.358 584.924 157.58C584.924 196.278 570.213 233.509 537.848 277.171C513.744 309.551 471.759 351.069 428.757 384.803C392.657 413.234 336.98 450.691 301.785 470.322ZM519.665 263.735C497.075 294.076 456.668 334.196 414.761 367.07L414.727 367.097C380.956 393.694 329.391 428.53 295.195 448.109C293.032 446.811 290.439 445.221 287.18 443.221C285.668 442.294 284.012 441.278 282.19 440.163C228.104 406.876 184.473 375.128 143.943 339.553C143.942 339.552 143.94 339.55 143.938 339.549C76.3725 280.149 39.9809 226.751 30.2694 181.475C29.3546 177.053 28.633 167.433 28.633 156.226C28.633 145.022 29.3542 135.404 30.2686 130.981C38.6785 91.8781 62.2468 59.6461 96.5527 39.9664C110.548 31.9978 128.672 25.9034 145.717 23.5682C149.999 22.9928 158.786 22.7811 168.782 23.1639C178.813 23.548 187.424 24.4297 191.403 25.2905L191.429 25.2961L191.454 25.3015C216.942 30.7537 238.707 42.317 256.78 59.6607L256.787 59.6679L256.795 59.6751C261.95 64.6136 268.22 71.5015 270.56 74.5199C272.332 76.9885 274.131 79.2951 275.702 81.1437C276.483 82.0636 277.453 83.1609 278.485 84.1848C278.948 84.6445 279.848 85.5156 281.017 86.425C281.574 86.8581 282.69 87.6933 284.209 88.5252L284.259 88.5529C285.167 89.052 289.355 91.3532 295.222 91.3532C301.25 91.3532 305.535 88.9237 306.429 88.4166L306.486 88.3843C308.003 87.5278 309.113 86.6728 309.653 86.2414C310.793 85.3318 311.67 84.4635 312.105 84.0241C313.081 83.0378 314.013 81.9745 314.743 81.1169C316.288 79.3011 318.088 77.0316 319.833 74.7332L319.884 74.6662L319.934 74.5987C330.479 60.4901 351.777 43.3158 369.331 35.2314L369.337 35.2286C388.662 26.3214 403.465 23.1111 426.939 23.2084M288.011 452.207C288.009 452.208 288.038 452.193 288.098 452.159C288.042 452.189 288.012 452.206 288.011 452.207ZM519.665 263.735C550.286 222.418 562.291 189.819 562.291 157.58C562.291 113.741 542.68 75.1254 505.804 47.7622C499.082 42.8078 481.623 33.7036 472.109 30.4489L472.064 30.4335L472.019 30.418C456.439 25.0153 446.046 23.3098 426.941 23.2084" fill="url(#paint0_linear_18_245)"/>
</g>
<defs>
<linearGradient id="paint0_linear_18_245" x1="295.462" y1="473" x2="295.462" y2="0.405701" gradientUnits="userSpaceOnUse">
<stop offset="0.0104167" stop-color="#E70E6B"/>
<stop offset="0.520833" stop-color="#A168EC"/>
<stop offset="1" stop-color="#6B68B0"/>
</linearGradient>
<clipPath id="clip0_18_245">
<rect width="586" height="473" fill="white"/>
</clipPath>
</defs>
</svg>
